<?xml version="1.0" encoding="UTF-8"?>
<svg xmlns="http://www.w3.org/2000/svg" xmlns:xlink="http://www.w3.org/1999/xlink" version="1.1" id="Layer_1" x="0px" y="0px" viewBox="0 0 618 618" style="enable-background:new 0 0 618 618;" xml:space="preserve">
<style type="text/css">
	
		.st0{clip-path:url(#SVGID_00000050628316219931917210000016531173090438153395_);fill-rule:evenodd;clip-rule:evenodd;fill:#1F2020;}
</style>
<g>
	<defs>
		<rect id="SVGID_1_" x="0" y="0" width="618" height="618"></rect>
	</defs>
	<clipPath id="SVGID_00000175322963838033712510000018077613213558913931_">
		<use xlink:href="#SVGID_1_" style="overflow:visible;"></use>
	</clipPath>
	
		<path style="clip-path:url(#SVGID_00000175322963838033712510000018077613213558913931_);fill-rule:evenodd;clip-rule:evenodd;fill:#1F2020;" d="   M10-141.6h8.3v5.3H10V-141.6z M565.3-213.6c-2.2-1.4-5.3-2-9.5-2c-2.5,0-5.1,0.5-7.4,1.5c-2.3,1.1-4.4,2.6-6,4.6   c-3.6,4.1-5.4,9.7-5.4,16.7v32.3h-12.5v-63.4H537v13.1h0.3c1.6-4.2,4.5-7.9,8.2-10.4c3.6-2.5,7.9-3.8,12.3-3.8   c2.5-0.1,5.1,0.2,7.5,0.9v0.2h11.4v-15.5l12.5-3.3v18.8h19.7v8.7h-19.7v35.7c0,4.3,0.9,7.3,2.7,9.1c1.8,1.8,4.7,2.7,8.9,2.7   c2.9,0.1,5.7-0.6,8.2-2.1l0,8.7c-3,1.3-6.9,2-11.7,2c-13.7,0-20.6-6.2-20.6-18.6v-37.5h-11.4L565.3-213.6z M475.7-190.4l18.9-2.1   l0,6.3c0.1,2.5-0.5,5.1-1.5,7.4c-1.1,2.3-2.6,4.4-4.6,6c-4.1,3.5-9.2,5.3-15.4,5.3c-4.5,0-8.2-1-10.9-2.9c-1.3-0.8-2.3-1.9-3-3.3   c-0.7-1.3-1.1-2.8-1.1-4.3c0-4.3,1.5-7.2,4.4-8.9C465.5-188.6,469.8-189.7,475.7-190.4z M494.5-160.4h12.5v-41.3   c0-15.8-9.2-23.7-27.6-23.7c-10,0-18.9,2-26.6,5.9v10.4c7.5-5.2,16.4-7.9,25.6-7.8c10.8,0,16.1,5.4,16.1,16.2l-23.5,2.7   c-17.2,1.9-25.9,8.8-25.9,20.7c-0.1,2.6,0.5,5.2,1.7,7.5c1.2,2.3,2.9,4.3,5,5.8c4.4,3.3,10.5,5,18.3,5c10.6,0,18.6-3.8,24.1-11.4   h0.3V-160.4z M430.8-160.4h-11.8v-54.8c0.1-5.3,0.4-10.6,1-15.9h-0.3c-0.8,2.7-1.8,5.4-3,7.9l-34.5,62.8h-5.7l-34.4-62.3   c-1.3-2.7-2.3-5.5-3-8.4h-0.3c0.5,5.3,0.6,10.7,0.6,16v54.7h-11.5v-81.7h15.6l31,57c1.8,3.1,3.4,6.4,4.6,9.8h0.4   c2-4.5,3.6-7.8,4.9-10l31.6-56.8h14.8L430.8-160.4z M305.2-159.1c4.8,0,8.7-0.7,11.7-2l0-8.7c-2.5,1.5-5.3,2.2-8.2,2.1   c-4.1,0-7.1-0.9-8.9-2.7c-1.8-1.8-2.7-4.9-2.7-9.1v-35.7h19.7v-8.7h-19.7v-18.8l-12.5,3.3v15.5h-13.5v8.7h13.5v37.5   C284.6-165.2,291.5-159.1,305.2-159.1z M179.9-201.8v32h17.4c7.5,0,13.4-1.4,17.6-4.3c2-1.3,3.6-3.1,4.7-5.1   c1.1-2.1,1.6-4.4,1.6-6.8c0-10.5-8.8-15.7-26.5-15.7H179.9z M179.9-239.8v28.7H193c7,0,12.6-1.4,16.6-4.1c1.9-1.2,3.5-3,4.6-5   c1.1-2,1.6-4.3,1.5-6.6c0-8.6-7-12.9-21-12.9L179.9-239.8z M167-160.4v-88.8h31.2c9.5,0,17,1.9,22.6,5.6c5.6,3.8,8.3,8.6,8.3,14.7   c0.1,4.9-1.7,9.6-5,13.1c-3.4,3.7-8,6.4-14,7.9v0.2c7.4,0.7,13.3,3,17.7,6.8c2.2,1.8,3.9,4.1,5,6.7c1.2,2.6,1.7,5.4,1.6,8.2   c0,7.6-3.4,13.8-10.1,18.5c-6.7,4.7-15.2,7.1-25.4,7.1H167z M261.4-160.4h-12.5v-63.4h12.5V-160.4z M255.3-240   c-2.1,0.1-4.1-0.6-5.7-1.9c-0.7-0.5-1.3-1.2-1.8-2.1c-0.4-0.8-0.6-1.7-0.6-2.6c0-0.9,0.2-1.8,0.6-2.7c0.4-0.8,1-1.5,1.8-2.1   c1.6-1.3,3.7-2,5.7-1.9c2.1-0.1,4.2,0.6,5.9,1.9c0.8,0.5,1.4,1.2,1.8,2.1c0.4,0.8,0.6,1.7,0.6,2.6c0,0.9-0.2,1.8-0.6,2.6   c-0.4,0.8-1,1.5-1.8,2.1C259.5-240.6,257.4-239.9,255.3-240z M114.4-178.1c0,7.1-3.4,12.3-8.4,15c-5,2.7-12.1,4.2-24.1,4.2H9v-3.5   h72.6c11.1,0,18.5-1.8,22.2-3.8c4-2.2,6.7-7.5,6.7-12c0-6.9-4.7-10.6-8.2-12.7c-1.8-1.1-7.8-3.8-23.5-3.8H51.1v-3.5h28.3   c17.8,0,21.5,1.7,25.8,4.3C109.8-191,114.4-186,114.4-178.1z M82.3-232.9H57.1v2.9h25.2V-232.9z M30.9-241.9h52.4v2.9H30.9V-241.9z    M49.1-232.9H17.5v2.9h31.7V-232.9z M27.1-253h13.8v2.5H27.1V-253z M51.7-151.8H18.4v3.7h33.4V-151.8z M18.4-175.1h35.5v3.1H18.4   V-175.1z M37.3-186H25.6v3.1h11.7V-186z M60.3-174.9h22.9v2.6H60.3V-174.9z M83.5-186H44v3.1h39.4V-186z M111.7-232.5   c0,6.8-2.1,13.4-5.9,19c-0.5-0.3-1-0.5-1.5-0.8C109-219.2,111.6-225.7,111.7-232.5z M111.7-233.2c0,0.2,0,0.5,0,0.7   C111.7-232.7,111.7-232.9,111.7-233.2z M110.9-210.1L110.9-210.1l-0.2-0.1c4.4-6.3,6.6-14,6.6-23c0-13.4-4.6-23.9-13.8-31.5   c-9.2-7.6-21.8-11.4-37.9-11.4H25.4v5.6h39.4c13.7,0,25.9,3,33.6,9.4c7.2,5.9,9.8,10.9,12,18.5c-2.1-6.9-7.2-11.3-10.3-14   c-5.5-4.6-12.3-7.8-30.9-7.8H38.2v5.5h30.2c15.9,0,21.7,2,27,5.9c6.8,5.1,11.1,11.1,11.1,19.8c0,7.9-2.8,12.1-7.4,16.4   c-0.5-0.2-1.1-0.4-1.6-0.6l0.5-0.3c5-2.8,8.5-8.1,8.5-15.6c0-8.2-4.7-13.3-9.3-16.1c-4.3-2.7-8.4-4.5-25.8-4.5H49.2v3.6h21.6   c15.7,0,21.7,2.8,23.5,3.9c3.5,2.2,8.2,5.9,8.2,13.1c0,4.6-2.7,10.1-6.7,12.4c-1.3,0.7-2.7,1.3-4.1,1.7c-6-1.4-12.1-2-18.2-2H46.7   v5.6h26.1c13.7,0,26.1,2.8,33.6,9.4c5.7,4.9,9.9,11.3,11.9,18.5c-2.1-6.9-6.5-11.1-10.3-14c-5.7-4.3-12.3-7.9-30.9-7.8H35.1v5.5   h41.4c15.9,0,21.7,2,27,5.9c6.8,5.1,11,11.1,11,19.8c0,8.4-4.2,14.5-11.1,19.6c-7,5.2-17.7,5.3-22.1,5.3h-23v5.5h17.2   c14.4,0,24-1.2,32.3-7.4c7.8-5.8,11.9-13.3,11.9-23c0.1,5.2-1,10.3-3.3,15c-2.2,4.7-5.5,8.8-9.6,12.1c-7.9,6.5-21.9,9.4-36,9.4   H25.7v5.6h45.5c17,0,30.2-3.7,39.7-11.1c9.5-7.4,14.3-17.7,14.3-31.1c0-13.4-4.6-23.9-13.8-31.5C111.2-209.8,111-209.9,110.9-210.1   z"></path>
	
		<path style="clip-path:url(#SVGID_00000175322963838033712510000018077613213558913931_);fill-rule:evenodd;clip-rule:evenodd;fill:#1F2020;" d="   M64.4,585.3h35.8V608H64.4V585.3z M511.7,428.6c0,30.2-14.6,52.9-36.1,64.3c-21.5,11.4-51.8,17.9-103.2,17.9H59.9v-14.9h311   c47.4,0,79.3-7.6,95-16.2c17.2-9.4,28.9-32.2,28.9-51.2c0-29.7-20-45.4-35.2-54.4c-7.7-4.6-33.3-16.1-100.8-16.1H240.2v-14.9h121.4   c76.1,0,92.2,7.5,110.7,18.6C492,373.6,511.7,394.8,511.7,428.6z M374.1,193.7h-108v12.6h108V193.7z M153.8,155.4h224.6v12.6H153.8   V155.4z M231.9,193.7H96.3v12.6h135.6V193.7z M137.5,107.9h59.2v10.8h-59.2V107.9z M243.1,541.4H100v15.7h143V541.4z M100,441.6   h152v13.1H100V441.6z M181.3,394.8h-50v13.1h50V394.8z M279.8,442.5h98.3v11.2h-98.3V442.5z M379.1,394.8h-169v13.1h169V394.8z    M499.9,195.7c-0.1,29-8.8,57.4-25.1,81.5c-2.1-1.2-4.2-2.4-6.3-3.5C488.6,252.6,499.8,224.7,499.9,195.7z M499.9,192.7   c0,1,0,2,0,3C499.9,194.7,499.9,193.7,499.9,192.7z M496.4,291.8L496.4,291.8l-0.8-0.6c18.8-27,28.1-59.9,28.1-98.5   c0-57.4-19.7-102.3-59.1-134.9C425.3,25.2,371.1,9,302,9H130.1v24h168.8c58.7,0,111,13.1,144.2,40.1c30.9,25.2,42.2,46.9,51.2,79.3   c-9.2-29.6-30.8-48.6-44.2-59.8C426.6,72.9,397.4,59,317.8,59H185.2v23.4h129.6c67.9,0,92.9,8.4,115.7,25.3   c29.3,21.7,47.4,47.6,47.4,84.9c0,33.7-11.8,51.7-31.7,70.4c-2.3-0.9-4.6-1.8-7-2.6l2.2-1.2c21.5-11.9,36.4-34.6,36.4-66.7   c0-35-20-56.8-39.7-69.1c-18.4-11.5-35.9-19.3-110.6-19.3h-95.3v15.6h92.6c67.5,0,93,12,100.8,16.7c15.2,9.3,35.2,25.4,35.2,56.3   c0,19.7-11.6,43.4-28.8,53.1c-5.6,3.1-11.5,5.6-17.6,7.5c-25.6-5.8-51.8-8.6-78-8.4h-115v24h111.8c58.7,0,111.8,12.1,144.2,40.1   c24.5,20.8,42.3,48.4,51.2,79.3c-9.1-29.6-27.9-47.5-44.2-59.8c-24.6-18.6-52.8-33.6-132.4-33.6H171.8v23.4h177.3   c67.9,0,92.8,8.4,115.7,25.3c29.3,21.7,47.1,47.6,47.1,84.9c0,36-18.1,62.3-47.5,84c-30.1,22.2-76,22.8-94.7,22.8h-98.5V559h73.6   c61.6,0,102.8-5.3,138.4-31.7c33.4-24.8,51.2-57,51.2-98.5c0.3,22.3-4.5,44.3-14,64.5c-9.5,20.1-23.5,37.8-40.9,51.7   c-33.7,27.9-93.9,40.2-154.1,40.2H131.5V609h195.2c72.7,0,129.4-15.8,170.2-47.4c40.8-31.6,61.2-75.9,61.2-133.1   c-0.1-57.5-19.9-102.4-59.3-134.9C498,293,497.2,292.4,496.4,291.8z"></path>
</g>
</svg>
