<svg width="400" height="400" viewBox="0 0 400 400" fill="none" xmlns="http://www.w3.org/2000/svg">
<path d="M300.153 172.98C299.755 174.575 299.516 176.209 299.477 178.003C299.278 186.254 299.437 194.864 299.397 203.155C299.397 204.47 299.238 205.785 299.119 208.297C297.249 206.064 274.978 178.601 264.995 166.284C264.836 166.084 264.637 165.885 264.478 165.686L260.063 160.225H246.064V239.707C254.893 240.703 262.728 232.572 262.927 222.168C263.086 215.033 262.927 208.336 262.927 201.201V192.592C262.927 192.592 280.068 212.562 291.562 226.313L302.34 239.587H316.34V160.026C308.385 159.707 302.102 165.008 300.113 172.98H300.153Z" fill="#FFDB00"/>
<path d="M70.7131 239.627H0V159.946C9.74393 159.188 17.5391 166.961 17.6982 177.803C17.8572 188.526 17.6982 199.248 17.6982 209.971V221.65H22.6696C35.8736 221.65 40.5666 221.57 53.7706 221.65C63.3554 221.729 70.8722 229.582 70.7131 239.547V239.627Z" fill="#FFDB00"/>
<path d="M394.888 216.986L370.309 196.498L393.018 182.587C399.899 178.401 402.047 169.393 397.871 162.497L396.399 160.065L347.162 190.2V174.774C347.162 166.722 340.64 160.185 332.606 160.185H329.782V239.786H332.606C340.64 239.786 347.162 233.249 347.162 225.197V210.648L354.6 206.104L394.689 239.746L396.518 237.594C401.728 231.455 401.012 222.248 394.888 216.986Z" fill="#FFDB00"/>
<path d="M237.235 236.039C228.445 213.08 219.696 190.16 210.827 167.28L208.083 159.906H187.998L185.453 166.722C181.078 178.322 176.624 189.881 172.209 201.48C167.556 213.638 162.903 225.795 158.289 237.953C165.726 241.899 174.874 238.71 179.01 230.618C180.203 228.306 180.601 227.629 180.601 227.629H215.679C215.679 227.629 216.037 228.306 217.469 230.977C221.605 238.71 229.917 241.58 237.831 238.152C237.633 237.275 237.513 236.637 237.275 236L237.235 236.039ZM187.322 209.612C190.901 200.245 194.282 191.276 198.1 181.271C201.918 191.316 205.378 200.285 208.958 209.612H187.322Z" fill="#FFDB00"/>
<path d="M147.432 205.706C145.125 202.238 145.244 197.933 147.432 194.585C149.659 191.157 150.971 187.051 151.011 182.666C151.091 170.27 140.71 160.344 128.341 160.344H89.0078C83.4001 160.344 78.8661 164.889 78.8661 170.509V229.941C78.8661 235.561 83.4001 240.105 89.0078 240.105H128.898V240.025C141.108 240.025 151.011 230.1 151.011 217.863C151.011 213.399 149.699 209.213 147.392 205.745L147.432 205.706ZM123.092 229.542C118.001 233.847 110.365 233.409 106.109 228.625C101.973 223.922 102.013 217.385 105.99 212.562C107.859 210.29 109.768 207.938 110.922 205.267C112.791 201.002 111.916 195.501 109.052 191.754C107.859 190.16 106.467 188.725 105.274 187.131C101.854 182.626 102.013 176.289 105.672 172.183C109.53 167.798 115.694 166.603 120.666 169.393C121.66 169.951 122.575 170.589 123.37 171.346C124.921 172.781 126.035 174.535 126.592 176.727C127.307 179.517 127.029 182.507 125.796 185.138C125.319 186.134 124.762 187.051 124.046 187.888C122.773 189.403 121.461 190.917 120.308 192.552C117.206 197.096 117.484 204.311 120.864 208.655C122.097 210.21 123.41 211.685 124.643 213.279C128.501 218.142 127.785 225.636 123.092 229.582V229.542Z" fill="#FFDB00"/>
</svg>
